<?xml version="1.0" encoding="utf-8"?>
<!-- Generated by IcoMoon.io -->
<svg version="1.1" xmlns="http://www.w3.org/2000/svg" xmlns:xlink="http://www.w3.org/1999/xlink" width="590" height="20" viewBox="0 0 590 20">
<svg id="icon-mail" width="20" height="20" viewBox="0 0 20 20" x="0" y="0">
<path fill="#03a78c" d="M5.085 7.25c0.285 0.153 4.228 2.272 4.375 2.35s0.337 0.116 0.528 0.116c0.191 0 0.382-0.037 0.528-0.116s4.090-2.197 4.375-2.35c0.285-0.153 0.555-0.75 0.032-0.75h-9.869c-0.523 0-0.254 0.597 0.031 0.75zM15.024 8.535c-0.324 0.169-4.309 2.245-4.507 2.349s-0.337 0.116-0.528 0.116-0.33-0.012-0.528-0.116-4.161-2.181-4.485-2.35c-0.228-0.119-0.225 0.020-0.225 0.128s0 4.254 0 4.254c0 0.245 0.33 0.583 0.583 0.583h9.333c0.253 0 0.583-0.338 0.583-0.583 0 0 0-4.146 0-4.254s0.002-0.247-0.226-0.128z"></path>
</svg>
<svg id="icon-phone" width="20" height="20" viewBox="0 0 20 20" x="38" y="0">
<path fill="#03a78c" d="M10.845 10.845c-1.088 1.088-2.349 2.128-2.847 1.63-0.713-0.713-1.153-1.334-2.726-0.070s-0.364 2.106 0.327 2.797c0.797 0.797 3.77 0.043 6.708-2.895s3.69-5.911 2.892-6.708c-0.691-0.692-1.53-1.899-2.793-0.327s-0.643 2.012 0.071 2.726c0.496 0.498-0.544 1.759-1.631 2.847z"></path>
</svg>
<svg id="icon-google" width="20" height="20" viewBox="0 0 20 20" x="76" y="0">
<path fill="#03a78c" d="M4.265 6.842c0 1.070 0.357 1.841 1.061 2.294 0.577 0.372 1.246 0.428 1.594 0.428 0.084 0 0.152-0.004 0.2-0.007 0 0-0.11 0.719 0.422 1.429h-0.024c-0.923 0-3.932 0.193-3.932 2.668 0 2.517 2.764 2.645 3.319 2.645 0.044 0 0.069-0.001 0.069-0.001 0.006 0 0.045 0.001 0.113 0.001 0.356 0 1.276-0.044 2.13-0.46 1.108-0.537 1.67-1.474 1.67-2.781 0-1.263-0.856-2.015-1.481-2.564-0.382-0.336-0.712-0.625-0.712-0.906 0-0.286 0.241-0.502 0.546-0.775 0.493-0.44 0.959-1.068 0.959-2.255 0-1.043-0.135-1.744-0.969-2.189 0.087-0.044 0.394-0.077 0.546-0.098 0.452-0.062 1.113-0.132 1.113-0.5v-0.071h-3.292c-0.033 0.001-3.33 0.123-3.33 3.142zM9.58 13.295c0.063 1.007-0.798 1.749-2.092 1.843-1.314 0.097-2.395-0.495-2.458-1.501-0.031-0.484 0.182-0.956 0.598-1.334 0.422-0.382 1.001-0.618 1.631-0.664 0.074-0.004 0.148-0.009 0.222-0.009 1.216 0.001 2.040 0.715 2.099 1.664zM8.72 6.153c0.323 1.137-0.165 2.324-0.942 2.544-0.089 0.025-0.181 0.037-0.275 0.037-0.712 0-1.417-0.72-1.679-1.713-0.146-0.556-0.134-1.044 0.034-1.512 0.164-0.462 0.46-0.772 0.833-0.877 0.089-0.025 0.182-0.038 0.276-0.038 0.859 0 1.412 0.357 1.754 1.559zM14.295 8.568v-2.148h-1.432v2.148h-2.148v1.432h2.148v2.148h1.432v-2.148h2.148v-1.432h-2.148z"></path>
</svg>
<svg id="icon-facebook" width="12" height="20" viewBox="0 0 12 20" x="114" y="0">
<path fill="#03a78c" d="M9.404 2.79v2.153h-1.28c-1.003 0-1.191 0.481-1.191 1.174v1.541h2.39l-0.318 2.414h-2.072v6.19h-2.496v-6.19h-2.080v-2.414h2.080v-1.778c0-2.063 1.264-3.189 3.107-3.189 0.881 0 1.639 0.065 1.86 0.098z"></path>
</svg>
<svg id="icon-location" width="20" height="20" viewBox="0 0 20 20" x="152" y="0">
<path fill="#03a78c" d="M10 2.5c-2.589 0-4.688 2.099-4.688 4.688 0 4.688 4.688 10.313 4.688 10.313s4.688-5.625 4.688-10.313c0-2.589-2.099-4.688-4.688-4.688zM10 10c-1.553 0-2.813-1.259-2.813-2.813s1.259-2.813 2.813-2.813 2.813 1.259 2.813 2.813-1.259 2.813-2.813 2.813z"></path>
</svg>
<svg id="icon-twitter" width="20" height="20" viewBox="0 0 20 20" x="190" y="0">
<path fill="#03a78c" d="M16.923 6.138c-0.508 0.227-1.057 0.379-1.631 0.446 0.587-0.352 1.036-0.909 1.249-1.571-0.549 0.325-1.157 0.563-1.804 0.69-0.519-0.552-1.258-0.895-2.074-0.895-1.569 0-2.84 1.271-2.84 2.84 0 0.222 0.024 0.438 0.073 0.646-2.361-0.119-4.454-1.249-5.855-2.969-0.243 0.419-0.384 0.909-0.384 1.428 0 0.984 0.5 1.855 1.263 2.364-0.465-0.014-0.903-0.143-1.287-0.354 0 0.011 0 0.024 0 0.035 0 1.376 0.979 2.526 2.28 2.785-0.238 0.065-0.489 0.1-0.749 0.1-0.184 0-0.36-0.019-0.535-0.051 0.362 1.128 1.412 1.95 2.653 1.974-0.974 0.763-2.196 1.217-3.529 1.217-0.23 0-0.454-0.014-0.679-0.041 1.26 0.809 2.753 1.276 4.357 1.276 5.225 0 8.083-4.33 8.083-8.083 0-0.124-0.003-0.246-0.008-0.368 0.554-0.398 1.036-0.898 1.417-1.468z"></path>
</svg>
<svg id="icon-dribbble" width="20" height="20" viewBox="0 0 20 20" x="228" y="0">
<path fill="#03a78c" d="M10 17.5c-4.137 0-7.5-3.363-7.5-7.5s3.363-7.5 7.5-7.5c4.137 0 7.5 3.363 7.5 7.5s-3.363 7.5-7.5 7.5v0zM16.325 11.025c-0.22-0.070-1.983-0.595-3.99-0.272 0.838 2.303 1.178 4.178 1.245 4.567 1.436-0.973 2.461-2.511 2.745-4.295v0zM12.502 15.906c-0.097-0.563-0.466-2.52-1.365-4.857-0.015 0.006-0.029 0.009-0.041 0.015-3.615 1.26-4.913 3.765-5.027 3.999 1.087 0.847 2.452 1.354 3.932 1.354 0.888 0 1.734-0.182 2.502-0.51v0zM5.239 14.292c0.146-0.249 1.904-3.158 5.206-4.228 0.082-0.026 0.167-0.053 0.252-0.076-0.161-0.363-0.337-0.729-0.519-1.087-3.196 0.958-6.302 0.917-6.583 0.914-0.003 0.064-0.003 0.129-0.003 0.196 0 1.644 0.624 3.146 1.646 4.28v0zM3.73 8.696c0.287 0.003 2.927 0.015 5.924-0.779-1.061-1.887-2.206-3.475-2.376-3.706-1.793 0.847-3.135 2.499-3.548 4.485v0zM8.5 3.78c0.176 0.237 1.342 1.822 2.391 3.75 2.279-0.853 3.243-2.15 3.357-2.314-1.131-1.005-2.619-1.614-4.248-1.614-0.516 0.003-1.020 0.064-1.5 0.179v0zM14.96 5.96c-0.135 0.182-1.21 1.559-3.577 2.525 0.149 0.305 0.293 0.615 0.425 0.929 0.047 0.111 0.094 0.22 0.138 0.331 2.133-0.267 4.251 0.161 4.462 0.205-0.015-1.512-0.557-2.9-1.447-3.99v0z"></path>
</svg>
<svg id="icon-linkedin2" width="20" height="20" viewBox="0 0 20 20" x="266" y="0">
<path fill="#03a78c" d="M8.269 8.269h2.395v1.228h0.034c0.333-0.598 1.149-1.228 2.364-1.228 2.528 0 2.995 1.574 2.995 3.62v4.168h-2.496v-3.695c0-0.881-0.018-2.015-1.298-2.015-1.3 0-1.498 0.96-1.498 1.951v3.759h-2.495v-7.788z"></path>
<path fill="#03a78c" d="M3.942 8.269h2.596v7.788h-2.596v-7.788z"></path>
<path fill="#03a78c" d="M6.538 6.106c0 0.717-0.581 1.298-1.298 1.298s-1.298-0.581-1.298-1.298c0-0.717 0.581-1.298 1.298-1.298s1.298 0.581 1.298 1.298z"></path>
</svg>
<svg id="icon-pinterest2" width="20" height="20" viewBox="0 0 20 20" x="304" y="0">
<path fill="#03a78c" d="M10 2.5c-4.137 0-7.5 3.363-7.5 7.5s3.363 7.5 7.5 7.5 7.5-3.363 7.5-7.5-3.363-7.5-7.5-7.5zM10 16.498c-0.671 0-1.315-0.103-1.925-0.29 0.264-0.431 0.662-1.14 0.809-1.702 0.079-0.305 0.404-1.544 0.404-1.544 0.211 0.404 0.832 0.747 1.488 0.747 1.96 0 3.372-1.802 3.372-4.043 0-2.147-1.752-3.753-4.005-3.753-2.804 0-4.292 1.884-4.292 3.932 0 0.952 0.507 2.139 1.318 2.517 0.123 0.059 0.188 0.032 0.217-0.088 0.021-0.091 0.132-0.53 0.182-0.738 0.015-0.064 0.009-0.123-0.044-0.188-0.27-0.325-0.483-0.926-0.483-1.482 0-1.433 1.084-2.821 2.933-2.821 1.597 0 2.713 1.087 2.713 2.643 0 1.758-0.888 2.977-2.042 2.977-0.639 0-1.116-0.527-0.961-1.175 0.185-0.773 0.539-1.605 0.539-2.162 0-0.498-0.267-0.914-0.823-0.914-0.653 0-1.175 0.674-1.175 1.579 0 0.574 0.193 0.964 0.193 0.964s-0.645 2.722-0.762 3.229c-0.132 0.562-0.079 1.351-0.023 1.863-2.417-0.943-4.131-3.293-4.131-6.047 0-3.589 2.909-6.498 6.498-6.498s6.498 2.909 6.498 6.498c0 3.589-2.909 6.498-6.498 6.498z"></path>
</svg>
</svg>
